<?xml version="1.0" ?><!DOCTYPE svg  PUBLIC '-//W3C//DTD SVG 1.1//EN'  'http://www.w3.org/Graphics/SVG/1.1/DTD/svg11.dtd'><svg enable-background="new 0 0 512 512" height="512px" id="icon" version="1.1" viewBox="0 0 512 512" width="512px" xml:space="preserve" xmlns="http://www.w3.org/2000/svg" xmlns:xlink="http://www.w3.org/1999/xlink"><g><path d="M444.703,369.301l-27.674-64.955h25.699l-28.34-66.516h20.07V77.748H274.375v64.674h-60.712l-31.536,71.363   h-76.244l-38.585,90.561h29.65l-27.676,64.955h27.676l-27.676,64.951h375.432l-27.674-64.951H444.703z M280.807,202.648h19.352   v-15.721h7.898c1.535,8.912,9.301,15.721,18.641,15.721c10.439,0,18.936-8.494,18.936-18.936s-8.496-18.934-18.936-18.934   c-9.34,0-17.105,6.807-18.641,15.717h-14.332v15.721h-12.918v-79.752h12.918v15.717h14.332c1.535,8.912,9.301,15.717,18.641,15.717   c10.439,0,18.936-8.492,18.936-18.932s-8.496-18.936-18.936-18.936c-9.34,0-17.105,6.809-18.641,15.717h-7.898v-15.715h-19.352   V84.18h147.223v11.268h-19.688v15.719h-7.898c-1.535-8.906-9.301-15.719-18.641-15.719c-10.441,0-18.936,8.496-18.936,18.936   c0,10.443,8.494,18.936,18.936,18.936c9.34,0,17.105-6.809,18.641-15.721h14.332v-15.717h13.254v52.791h-27.586   c-1.535-8.908-9.301-15.717-18.641-15.717c-10.441,0-18.936,8.496-18.936,18.936c0,10.441,8.494,18.934,18.936,18.934   c9.34,0,17.105-6.807,18.641-15.719h27.586v52.592h-13.254V197.98h-14.334c-1.533-8.912-9.299-15.715-18.639-15.715   c-10.441,0-18.936,8.492-18.936,18.926c0,10.441,8.494,18.936,18.936,18.936c9.34,0,17.105-6.805,18.641-15.717h7.898v15.717   h19.688v11.271H280.807V202.648z M314.197,183.713c0-6.896,5.605-12.504,12.5-12.504c6.893,0,12.502,5.607,12.502,12.504   c0,6.893-5.609,12.504-12.502,12.504C319.803,196.217,314.197,190.605,314.197,183.713z M314.197,128.967   c0-6.895,5.605-12.504,12.5-12.504c6.893,0,12.502,5.609,12.502,12.504s-5.609,12.5-12.502,12.5   C319.803,141.467,314.197,135.861,314.197,128.967z M394.303,114.383c0,6.895-5.607,12.502-12.5,12.502   s-12.504-5.607-12.504-12.502c0-6.893,5.611-12.502,12.504-12.502S394.303,107.49,394.303,114.383z M394.303,157.891   c0,6.895-5.607,12.504-12.5,12.504s-12.504-5.609-12.504-12.504s5.611-12.504,12.504-12.504S394.303,150.996,394.303,157.891z    M394.303,201.191c0,6.898-5.607,12.506-12.5,12.506s-12.504-5.607-12.504-12.506c0-6.891,5.611-12.498,12.504-12.498   S394.303,194.301,394.303,201.191z M217.852,148.854h56.523v64.932h-85.218L217.852,148.854z M77.029,297.914l33.103-77.701h69.152   l-13.529,30.611c-9.027,0.57-15.871,5.566-15.871,11.85c0,6.676,7.728,11.904,17.594,11.904c9.864,0,17.59-5.229,17.59-11.904   c0-5.467-5.187-9.959-12.479-11.408l13.724-31.053h88.061v17.617h133.023l25.6,60.084H77.029z M167.479,257.199   c6.387,0,11.161,2.889,11.161,5.475c0,2.584-4.774,5.475-11.161,5.475c-6.389,0-11.161-2.891-11.161-5.475   C156.318,260.088,161.09,257.199,167.479,257.199z M103.937,304.346h306.102l7.344,17.238   c-28.715,25.857-51.441,26.361-85.969,2.234c-29.238-20.432-43.969-13.123-70.705,0.15c-6.101,3.025-13.015,6.459-20.897,9.938   c-32.086,14.162-52.211,0.789-73.52-13.361c-4.942-3.287-10.058-6.686-15.276-9.664c-19.488-11.137-41.756,1.4-54.633,11.193   L103.937,304.346z M79.001,362.867l11.686-27.42c3.813-3.736,34.065-32.166,57.138-18.982c5.03,2.873,10.052,6.211,14.91,9.436   c21.814,14.488,44.375,29.477,79.675,13.887c8.016-3.537,14.998-7.002,21.158-10.063c26.121-12.963,38.049-18.887,64.162-0.635   c18.004,12.58,33.307,18.912,47.842,18.91c14.941-0.002,29.07-6.699,44.471-20.172l14.93,35.039H79.001z M270.107,372.717   c0,8.785-13.648,16.207-29.805,16.207c-16.155,0-29.802-7.422-29.802-16.207c0-1.154,0.254-2.295,0.723-3.416h58.143   C269.838,370.424,270.107,371.564,270.107,372.717z M79.001,427.822l9.718-22.805c2.194,0.242,5.991,1.111,9.312,4.178   c4.201,3.881,6.549,10.148,7.016,18.627H79.001z M358.742,427.822h-52.641c-2.119-1.945-4.289-4.803-4.289-8.357   c0-9.043,14.02-16.68,30.613-16.68c16.598,0,30.617,7.637,30.617,16.68C363.043,423.076,360.787,425.949,358.742,427.822z    M434.973,427.822h-67.943c1.598-2.627,2.443-5.443,2.443-8.357c0-12.961-16.271-23.113-37.047-23.113   c-20.771,0-37.045,10.152-37.045,23.113c0,2.922,0.854,5.732,2.449,8.357H111.469c-0.519-10.379-3.549-18.242-9.078-23.352   c-3.771-3.484-7.932-4.945-11.075-5.551l12.62-29.619h100.566c-0.264,1.121-0.436,2.258-0.436,3.416   c0,12.693,15.919,22.637,36.235,22.637c20.317,0,36.233-9.943,36.233-22.637c0-1.16-0.18-2.295-0.441-3.416h133.945l4.234,9.939   c-14.795,2.969-24.807,11.439-24.807,21.465c0,12.67,15.885,22.596,36.16,22.596c2.441,0,4.842-0.197,7.211-0.492L434.973,427.822z    M430.221,416.664c-1.516,0.131-3.049,0.203-4.594,0.203c-16.115,0-29.73-7.398-29.73-16.162c0-6.908,8.852-13.309,20.953-15.416   L430.221,416.664z" fill="#1D1D1B"/><path d="M156.644,386.699c-12.092,0-21.563,6.15-21.563,14.006s9.472,14.01,21.563,14.01s21.562-6.154,21.562-14.01   S168.736,386.699,156.644,386.699z M156.644,408.283c-8.661,0-15.134-4.002-15.134-7.578c0-3.578,6.473-7.576,15.134-7.576   c8.657,0,15.13,3.998,15.13,7.576C171.774,404.281,165.301,408.283,156.644,408.283z" fill="#1D1D1B"/><path d="M334.83,128.967c0-4.484-3.648-8.131-8.133-8.131c-4.482,0-8.133,3.646-8.133,8.131   c0,4.482,3.65,8.133,8.133,8.133C331.182,137.1,334.83,133.449,334.83,128.967z M324.996,128.967c0-0.936,0.762-1.701,1.701-1.701   c0.938,0,1.701,0.766,1.701,1.701c0,0.939-0.764,1.699-1.701,1.699C325.758,130.666,324.996,129.906,324.996,128.967z" fill="#1D1D1B"/><path d="M334.83,183.713c0-4.484-3.648-8.129-8.133-8.129c-4.482,0-8.133,3.645-8.133,8.129s3.65,8.133,8.133,8.133   C331.182,191.846,334.83,188.197,334.83,183.713z M324.996,183.713c0-0.938,0.762-1.703,1.701-1.703   c0.938,0,1.701,0.766,1.701,1.703s-0.764,1.701-1.701,1.701C325.758,185.414,324.996,184.65,324.996,183.713z" fill="#1D1D1B"/><path d="M373.672,157.891c0,4.482,3.646,8.131,8.131,8.131c4.482,0,8.131-3.648,8.131-8.131   c0-4.486-3.648-8.133-8.131-8.133C377.318,149.758,373.672,153.404,373.672,157.891z M383.506,157.891   c0,0.938-0.766,1.701-1.703,1.701c-0.939,0-1.703-0.764-1.703-1.701c0-0.939,0.764-1.701,1.703-1.701   C382.74,156.189,383.506,156.951,383.506,157.891z" fill="#1D1D1B"/><path d="M373.672,201.191c0,4.488,3.646,8.137,8.131,8.137c4.482,0,8.131-3.648,8.131-8.137   c0-4.479-3.648-8.127-8.131-8.127C377.318,193.064,373.672,196.713,373.672,201.191z M383.506,201.191   c0,0.941-0.766,1.705-1.703,1.705c-0.939,0-1.703-0.764-1.703-1.705c0-0.932,0.764-1.697,1.703-1.697   C382.74,199.494,383.506,200.26,383.506,201.191z" fill="#1D1D1B"/><path d="M373.672,114.383c0,4.482,3.646,8.133,8.131,8.133c4.482,0,8.131-3.65,8.131-8.133   s-3.648-8.131-8.131-8.131C377.318,106.252,373.672,109.9,373.672,114.383z M383.506,114.383c0,0.941-0.766,1.703-1.703,1.703   c-0.939,0-1.703-0.762-1.703-1.703c0-0.936,0.764-1.701,1.703-1.701C382.74,112.682,383.506,113.447,383.506,114.383z" fill="#1D1D1B"/></g></svg>